<?xml version="1.0" standalone="no"?>
<!DOCTYPE svg PUBLIC "-//W3C//DTD SVG 20010904//EN"
 "http://www.w3.org/TR/2001/REC-SVG-20010904/DTD/svg10.dtd">
<svg version="1.0" xmlns="http://www.w3.org/2000/svg"
 width="1024.000000pt" height="1024.000000pt" viewBox="0 0 1024.000000 1024.000000"
 preserveAspectRatio="xMidYMid meet">
<metadata>
Created by potrace 1.14, written by Peter Selinger 2001-2017
</metadata>
<g transform="translate(0.000000,1024.000000) scale(0.100000,-0.100000)"
fill="#000000" stroke="none">
<path d="M4879 9586 c-2 -3 -63 -10 -134 -15 -121 -10 -324 -35 -370 -45 -11
-3 -49 -10 -85 -16 -65 -11 -86 -16 -215 -46 -206 -48 -533 -155 -705 -231
-118 -53 -387 -187 -453 -226 -43 -26 -81 -47 -83 -47 -12 0 -275 -177 -382
-257 -424 -318 -790 -708 -1086 -1161 -47 -72 -86 -133 -86 -136 0 -2 -21 -40
-47 -83 -39 -66 -173 -335 -226 -453 -76 -172 -183 -499 -231 -705 -30 -129
-35 -150 -46 -215 -6 -36 -13 -74 -16 -85 -9 -39 -34 -242 -47 -370 -16 -167
-16 -594 0 -755 13 -127 39 -329 47 -365 3 -11 10 -49 16 -85 43 -242 125
-530 225 -790 61 -159 205 -459 278 -583 26 -43 47 -81 47 -83 0 -12 177 -275
257 -382 318 -424 708 -790 1161 -1086 72 -47 133 -86 136 -86 2 0 40 -21 83
-47 66 -39 335 -173 453 -226 172 -76 499 -183 705 -231 128 -30 150 -35 215
-46 36 -6 85 -16 110 -20 53 -11 183 -27 335 -42 142 -15 628 -15 770 0 152
15 282 31 335 42 25 4 74 14 110 20 243 43 530 125 790 225 159 61 459 205
583 278 43 26 81 47 83 47 13 0 280 181 398 269 330 247 657 576 905 911 79
107 251 363 251 374 0 2 21 40 47 83 39 66 173 335 226 453 76 172 183 499
231 705 30 128 35 150 46 215 6 36 16 85 20 110 11 53 27 183 42 335 15 144
15 629 0 770 -28 273 -80 575 -132 755 -101 354 -174 549 -316 835 -99 200
-157 302 -287 497 -171 260 -328 450 -561 684 -232 232 -420 386 -679 559
-193 128 -302 191 -502 289 -286 141 -484 216 -835 316 -42 12 -195 47 -265
61 -155 31 -265 45 -580 79 -96 10 -527 15 -536 6z m583 -311 c209 -20 293
-31 453 -62 606 -116 1199 -378 1684 -742 63 -47 126 -95 140 -105 54 -41 190
-163 294 -265 802 -782 1257 -1858 1257 -2975 0 -290 -40 -656 -101 -916 -43
-184 -137 -498 -169 -565 -5 -11 -23 -56 -40 -100 -37 -94 -202 -430 -260
-530 -270 -459 -663 -901 -1084 -1216 -132 -100 -301 -214 -411 -279 -100 -58
-436 -223 -530 -260 -44 -17 -89 -35 -100 -40 -100 -48 -536 -170 -715 -200
-569 -95 -1015 -93 -1550 6 -717 134 -1422 481 -1970 970 -164 146 -400 392
-486 505 -208 277 -278 380 -391 579 -443 783 -618 1715 -492 2620 70 506 243
1020 492 1460 112 198 195 320 392 579 116 154 476 513 626 627 277 208 380
278 579 391 459 259 998 437 1511 498 74 8 172 19 219 24 142 14 479 12 652
-4z"/>
<path d="M4980 8094 c-264 -14 -538 -65 -790 -146 -145 -47 -176 -66 -201
-124 -46 -104 46 -220 158 -199 19 3 74 20 122 36 125 43 313 87 470 111 108
17 184 21 376 22 248 0 300 -5 550 -51 139 -25 140 -25 179 -7 117 56 118 216
1 269 -35 16 -258 58 -390 74 -99 12 -372 20 -475 15z"/>
<path d="M3260 7332 c-19 -11 -43 -36 -54 -58 -20 -38 -21 -56 -24 -719 -2
-506 0 -692 9 -725 11 -39 40 -73 222 -257 l210 -212 -2 -133 c-1 -73 -4 -142
-7 -153 -2 -11 -8 -121 -14 -245 -5 -124 -17 -360 -25 -525 -17 -340 -31 -614
-45 -890 -5 -104 -14 -291 -21 -415 -9 -176 -9 -240 1 -293 49 -277 334 -467
602 -403 127 31 245 114 313 221 70 111 88 209 75 415 -5 85 -16 301 -25 480
-8 179 -19 408 -25 510 -15 277 -29 561 -45 895 -8 165 -17 353 -21 419 l-6
118 211 212 c115 116 215 224 220 239 7 19 11 261 11 725 0 659 -1 699 -19
732 -52 99 -194 107 -251 15 -20 -32 -20 -48 -20 -690 l0 -659 -210 -211
c-140 -141 -215 -224 -226 -250 -17 -42 -16 -140 6 -525 5 -91 17 -309 25
-485 8 -176 19 -405 25 -510 5 -104 14 -284 20 -400 6 -115 17 -334 25 -485 8
-160 11 -290 6 -312 -51 -225 -371 -214 -397 14 -3 29 -1 150 5 268 6 118 15
303 21 410 16 318 40 791 50 995 5 105 14 285 20 400 6 116 15 289 20 386 5
96 7 193 3 215 -5 35 -30 64 -224 259 l-219 221 0 652 c0 725 2 699 -66 746
-47 31 -104 34 -154 8z"/>
<path d="M3699 7326 c-66 -45 -64 -24 -64 -726 l0 -635 23 -33 c30 -41 70 -62
122 -62 52 0 92 21 122 62 l23 33 0 640 c0 622 -1 641 -20 674 -41 70 -139 92
-206 47z"/>
<path d="M4149 7327 c-72 -47 -69 -21 -69 -715 0 -510 3 -629 14 -656 44 -106
193 -117 257 -20 18 28 19 59 19 672 l0 642 -22 35 c-43 66 -135 85 -199 42z"/>
<path d="M6066 7331 c-245 -69 -414 -238 -492 -493 -53 -171 -66 -216 -94
-326 -87 -330 -77 -713 23 -932 57 -123 169 -253 281 -324 l59 -38 -7 -131
c-6 -124 -11 -236 -36 -797 -5 -124 -17 -378 -25 -565 -8 -187 -20 -443 -25
-570 -5 -126 -13 -267 -16 -312 -13 -157 34 -290 138 -396 69 -70 171 -126
266 -146 237 -49 488 87 573 309 29 76 33 167 20 450 -12 236 -20 421 -41 895
-5 121 -17 371 -25 555 -9 184 -18 421 -21 525 l-5 190 55 34 c53 33 152 125
195 181 32 43 76 122 99 180 47 118 56 190 56 445 0 227 -1 246 -28 360 -26
116 -78 301 -116 415 -80 244 -217 391 -440 474 -103 38 -289 46 -394 17z
m230 -281 c117 -21 229 -101 278 -199 19 -38 56 -146 106 -316 48 -160 80
-350 80 -476 0 -91 -26 -263 -48 -325 -42 -112 -123 -197 -250 -264 -83 -43
-114 -73 -126 -122 -3 -15 -1 -129 4 -255 6 -125 15 -325 20 -443 5 -118 16
-368 25 -555 8 -187 20 -434 25 -550 24 -528 32 -777 26 -810 -5 -23 -22 -51
-49 -79 -34 -34 -53 -45 -99 -55 -112 -24 -222 33 -248 128 -8 32 -8 120 4
374 9 183 20 433 26 557 6 124 15 324 20 445 55 1189 56 1234 37 1271 -21 40
-42 57 -117 95 -130 66 -208 154 -257 292 -25 69 -26 80 -26 297 l0 225 40
150 c58 215 101 353 126 404 51 104 151 181 267 207 71 16 66 16 136 4z"/>
<path d="M7212 7070 c-66 -41 -91 -125 -56 -193 10 -18 50 -75 89 -127 253
-332 429 -723 504 -1120 39 -206 46 -282 45 -520 -1 -289 -26 -473 -98 -725
-112 -396 -307 -744 -600 -1073 -56 -62 -106 -125 -113 -140 -41 -92 32 -202
134 -202 59 0 94 25 204 146 178 197 329 414 447 644 83 161 177 400 215 545
3 11 14 54 26 96 91 337 113 858 51 1194 -6 28 -17 88 -25 135 -9 47 -20 96
-24 110 -5 14 -14 43 -20 65 -75 275 -203 566 -350 800 -63 100 -190 274 -240
329 -51 56 -130 72 -189 36z"/>
<path d="M2762 6913 c-69 -34 -283 -390 -390 -648 -90 -217 -165 -484 -192
-680 -6 -44 -16 -109 -22 -145 -15 -88 -14 -510 1 -640 65 -545 264 -1046 583
-1470 113 -149 265 -316 307 -336 100 -48 211 20 211 129 0 57 -10 72 -142
219 -177 196 -332 437 -447 690 -28 62 -35 81 -82 211 -153 428 -188 952 -94
1417 43 213 125 450 225 652 62 124 72 141 173 295 60 93 80 133 84 165 11
115 -109 193 -215 141z"/>
<path d="M4757 2450 c-25 -5 -52 -20 -75 -44 -34 -33 -37 -41 -36 -93 0 -71
20 -104 78 -132 57 -28 298 -45 506 -37 264 12 326 29 356 102 30 72 6 152
-57 189 -29 17 -47 19 -139 15 -130 -6 -541 -4 -572 2 -13 3 -40 2 -61 -2z"/>
</g>
</svg>
